<mxfile host="app.diagrams.net" modified="2023-04-17T12:32:04.136Z" agent="Mozilla/5.0 (Windows NT 10.0; Win64; x64) AppleWebKit/537.36 (KHTML, like Gecko) Chrome/111.0.0.0 Safari/537.36" etag="QDGjZiEAR9TSstrrHeVx" version="21.1.8" type="device">
  <diagram id="C5RBs43oDa-KdzZeNtuy" name="Page-1">
    <mxGraphModel dx="1050" dy="515" grid="1" gridSize="10" guides="1" tooltips="1" connect="1" arrows="1" fold="1" page="1" pageScale="1" pageWidth="827" pageHeight="1169" math="0" shadow="0">
      <root>
        <mxCell id="WIyWlLk6GJQsqaUBKTNV-0" />
        <mxCell id="WIyWlLk6GJQsqaUBKTNV-1" parent="WIyWlLk6GJQsqaUBKTNV-0" />
        <mxCell id="MR3YxhuRxshAB5g5UBOp-21" value="Anggota" style="swimlane;fontStyle=2;align=center;verticalAlign=top;childLayout=stackLayout;horizontal=1;startSize=26;horizontalStack=0;resizeParent=1;resizeLast=0;collapsible=1;marginBottom=0;rounded=0;shadow=0;strokeWidth=1;swimlaneLine=1;glass=0;" parent="WIyWlLk6GJQsqaUBKTNV-1" vertex="1">
          <mxGeometry x="304" y="30" width="160" height="120" as="geometry">
            <mxRectangle x="230" y="140" width="160" height="26" as="alternateBounds" />
          </mxGeometry>
        </mxCell>
        <mxCell id="MR3YxhuRxshAB5g5UBOp-22" value="+ nama : String" style="text;align=left;verticalAlign=top;spacingLeft=4;spacingRight=4;overflow=hidden;rotatable=0;points=[[0,0.5],[1,0.5]];portConstraint=eastwest;" parent="MR3YxhuRxshAB5g5UBOp-21" vertex="1">
          <mxGeometry y="26" width="160" height="26" as="geometry" />
        </mxCell>
        <mxCell id="MR3YxhuRxshAB5g5UBOp-23" value="+ umur : int" style="text;align=left;verticalAlign=top;spacingLeft=4;spacingRight=4;overflow=hidden;rotatable=0;points=[[0,0.5],[1,0.5]];portConstraint=eastwest;rounded=0;shadow=0;html=0;" parent="MR3YxhuRxshAB5g5UBOp-21" vertex="1">
          <mxGeometry y="52" width="160" height="38" as="geometry" />
        </mxCell>
        <mxCell id="MR3YxhuRxshAB5g5UBOp-44" value="+ detailAnggota() : void" style="text;align=left;verticalAlign=top;spacingLeft=4;spacingRight=4;overflow=hidden;rotatable=0;points=[[0,0.5],[1,0.5]];portConstraint=eastwest;rounded=0;shadow=0;html=0;strokeColor=default;" parent="MR3YxhuRxshAB5g5UBOp-21" vertex="1">
          <mxGeometry y="90" width="160" height="30" as="geometry" />
        </mxCell>
        <mxCell id="MR3YxhuRxshAB5g5UBOp-27" value="Pengurus Inti" style="swimlane;fontStyle=0;align=center;verticalAlign=top;childLayout=stackLayout;horizontal=1;startSize=26;horizontalStack=0;resizeParent=1;resizeLast=0;collapsible=1;marginBottom=0;rounded=0;shadow=0;strokeWidth=1;" parent="WIyWlLk6GJQsqaUBKTNV-1" vertex="1">
          <mxGeometry x="204" y="230" width="170" height="82" as="geometry">
            <mxRectangle x="340" y="380" width="170" height="26" as="alternateBounds" />
          </mxGeometry>
        </mxCell>
        <mxCell id="MR3YxhuRxshAB5g5UBOp-28" value="+ peran : String" style="text;align=left;verticalAlign=top;spacingLeft=4;spacingRight=4;overflow=hidden;rotatable=0;points=[[0,0.5],[1,0.5]];portConstraint=eastwest;" parent="MR3YxhuRxshAB5g5UBOp-27" vertex="1">
          <mxGeometry y="26" width="170" height="26" as="geometry" />
        </mxCell>
        <mxCell id="MR3YxhuRxshAB5g5UBOp-29" value="&amp;nbsp;+ detailPengurusInti() : void" style="text;html=1;align=left;verticalAlign=middle;resizable=0;points=[];autosize=1;strokeColor=default;fillColor=none;" parent="MR3YxhuRxshAB5g5UBOp-27" vertex="1">
          <mxGeometry y="52" width="170" height="30" as="geometry" />
        </mxCell>
        <mxCell id="MR3YxhuRxshAB5g5UBOp-30" value="" style="endArrow=block;endSize=10;endFill=0;shadow=0;strokeWidth=1;rounded=0;edgeStyle=elbowEdgeStyle;elbow=vertical;" parent="WIyWlLk6GJQsqaUBKTNV-1" source="MR3YxhuRxshAB5g5UBOp-27" target="MR3YxhuRxshAB5g5UBOp-21" edge="1">
          <mxGeometry width="160" relative="1" as="geometry">
            <mxPoint x="214" y="393" as="sourcePoint" />
            <mxPoint x="314" y="291" as="targetPoint" />
            <Array as="points">
              <mxPoint x="384" y="210" />
            </Array>
          </mxGeometry>
        </mxCell>
        <mxCell id="MR3YxhuRxshAB5g5UBOp-37" value="Koordinator Bidang Staf" style="swimlane;fontStyle=0;align=center;verticalAlign=top;childLayout=stackLayout;horizontal=1;startSize=26;horizontalStack=0;resizeParent=1;resizeLast=0;collapsible=1;marginBottom=0;rounded=0;shadow=0;strokeWidth=1;" parent="WIyWlLk6GJQsqaUBKTNV-1" vertex="1">
          <mxGeometry x="404" y="230" width="216" height="80" as="geometry">
            <mxRectangle x="550" y="140" width="160" height="26" as="alternateBounds" />
          </mxGeometry>
        </mxCell>
        <mxCell id="MR3YxhuRxshAB5g5UBOp-38" value="+ divisi : double" style="text;align=left;verticalAlign=top;spacingLeft=4;spacingRight=4;overflow=hidden;rotatable=0;points=[[0,0.5],[1,0.5]];portConstraint=eastwest;" parent="MR3YxhuRxshAB5g5UBOp-37" vertex="1">
          <mxGeometry y="26" width="216" height="24" as="geometry" />
        </mxCell>
        <mxCell id="MR3YxhuRxshAB5g5UBOp-49" value="+ detailKoordinatorBidangStaf() : void" style="text;align=left;verticalAlign=top;spacingLeft=4;spacingRight=4;overflow=hidden;rotatable=0;points=[[0,0.5],[1,0.5]];portConstraint=eastwest;strokeColor=default;" parent="MR3YxhuRxshAB5g5UBOp-37" vertex="1">
          <mxGeometry y="50" width="216" height="30" as="geometry" />
        </mxCell>
        <mxCell id="MR3YxhuRxshAB5g5UBOp-40" value="" style="endArrow=none;html=1;rounded=0;exitX=0.5;exitY=0;exitDx=0;exitDy=0;" parent="WIyWlLk6GJQsqaUBKTNV-1" source="MR3YxhuRxshAB5g5UBOp-37" edge="1">
          <mxGeometry width="50" height="50" relative="1" as="geometry">
            <mxPoint x="644" y="210" as="sourcePoint" />
            <mxPoint x="384" y="210" as="targetPoint" />
            <Array as="points">
              <mxPoint x="512" y="210" />
            </Array>
          </mxGeometry>
        </mxCell>
      </root>
    </mxGraphModel>
  </diagram>
</mxfile>
